<?xml version="1.0" ?><!DOCTYPE svg  PUBLIC '-//W3C//DTD SVG 1.1//EN'  'http://www.w3.org/Graphics/SVG/1.1/DTD/svg11.dtd'><svg enable-background="new 0 0 512 512" height="512px" version="1.1" viewBox="0 0 512 512" width="512px" xml:space="preserve" xmlns="http://www.w3.org/2000/svg" xmlns:xlink="http://www.w3.org/1999/xlink"><g id="Ebene_3"/><g id="Ebene_1"><g><path d="M447.21,162.487l-0.037-0.223c-4.359-23.335-23.585-41.192-46.755-43.424l-0.191-0.125    C357.292,115.962,306.572,113,255.92,113h-0.816c-50.256,0-100.65,2.865-143.319,5.56l-0.199,0.07    c-23.232,2.247-42.483,20.138-46.813,43.469l-0.037,0.237C60.267,192.777,58,223.868,58,254.731    c0,30.834,2.267,61.92,6.736,92.388l0.037,0.224c4.463,24.075,24.153,43.125,46.819,45.293l2.921,0.188    c46.278,2.928,94.133,5.956,141.403,5.956c50.421,0,100.929-2.998,144.313-5.808l0.192-0.015    c22.182-2.153,42.281-21.812,46.751-45.73l0.037-0.222c4.505-30.365,6.79-61.412,6.79-92.276    C454,223.939,451.715,192.904,447.21,162.487z M435.357,345.131c-3.558,18.78-19.008,34.176-36.003,35.875    c-43.173,2.796-93.414,5.776-143.437,5.776c-46.892,0-94.553-3.016-140.646-5.932l-2.629-0.167    c-17.095-1.686-32.566-16.885-36.05-35.418C72.218,315.409,70,284.953,70,254.738c0-30.244,2.218-60.701,6.592-90.53    c3.392-18.016,18.194-31.908,36.053-33.679c42.46-2.681,92.576-5.529,142.459-5.529h0.809c50.276,0,100.72,2.945,143.445,5.686    c17.803,1.757,32.584,15.594,35.999,33.621c4.408,29.8,6.643,60.231,6.643,90.397C442,284.941,439.765,315.383,435.357,345.131z"/><path d="M206,319.896l122.599-65.816L206,188.259V319.896z M218,208.322l85.229,45.758L218,299.835V208.322z"/></g></g><g id="Ebene_2"/></svg>